HIERARCHY
ROOT Hips
{
	OFFSET	0.00	0.00	0.00
	CHANNELS 6 Xposition Yposition Zposition Zrotation Xrotation Yrotation
	JOINT LeftUpLeg
	{
		OFFSET	 0.126116	-0.014019	-0.065224
		CHANNELS 3 Zrotation Xrotation Yrotation
		JOINT LeftLeg
		{
			OFFSET	 0.000000	 0.000000	 0.569914
			CHANNELS 3 Zrotation Xrotation Yrotation
			JOINT LeftFoot
			{
				OFFSET	 0.000000	 0.000000	 0.544423
				CHANNELS 3 Zrotation Xrotation Yrotation
				JOINT LeftToeBase
				{
					OFFSET	 0.000000	 0.000000	 0.207117
					CHANNELS 3 Zrotation Xrotation Yrotation
					End Site
					{
						OFFSET	 0.000000	 0.000000	 0.207117
					}
				}
			}
		}
	}
	JOINT RightUpLeg
	{
		OFFSET	-0.124023	-0.008373	-0.065224
		CHANNELS 3 Zrotation Xrotation Yrotation
		JOINT RightLeg
		{
			OFFSET	 0.000000	 0.000000	 0.570047
			CHANNELS 3 Zrotation Xrotation Yrotation
			JOINT RightFoot
			{
				OFFSET	 0.000000	 0.000000	 0.544354
				CHANNELS 3 Zrotation Xrotation Yrotation
				JOINT RightToeBase
				{
					OFFSET	 0.000000	 0.000000	 0.207540
					CHANNELS 3 Zrotation Xrotation Yrotation
					End Site
					{
						OFFSET	 0.000000	 0.000000	 0.207540
					}
				}
			}
		}
	}
	JOINT Spine
	{
		OFFSET	 0.000184	-0.007763	 0.117403
		CHANNELS 3 Zrotation Xrotation Yrotation
		JOINT Spine1
		{
			OFFSET	 0.000000	 0.000000	 0.137269
			CHANNELS 3 Zrotation Xrotation Yrotation
			JOINT Spine2
			{
				OFFSET	 0.000000	 0.000000	 0.156879
				CHANNELS 3 Zrotation Xrotation Yrotation
				JOINT LeftShoulder
				{
					OFFSET	 0.080501	-0.002496	 0.160144
					CHANNELS 3 Zrotation Xrotation Yrotation
					JOINT LeftArm
					{
						OFFSET	 0.000000	 0.000000	 0.164363
						CHANNELS 3 Zrotation Xrotation Yrotation
						JOINT LeftForeArm
						{
							OFFSET	 0.000000	 0.000000	 0.364576
							CHANNELS 3 Zrotation Xrotation Yrotation
							JOINT LeftHand
							{
								OFFSET	 0.000000	 0.000000	 0.360812
								CHANNELS 3 Zrotation Xrotation Yrotation
								JOINT LeftHandIndex1
								{
									OFFSET	 0.000000	 0.000000	 0.086006
									CHANNELS 3 Zrotation Xrotation Yrotation
									JOINT LeftHandIndex2
									{
										OFFSET	 0.000000	 0.000000	 0.047236
										CHANNELS 3 Zrotation Xrotation Yrotation
										JOINT LeftHandIndex3
										{
											OFFSET	-0.004284	-0.000551	 0.038166
											CHANNELS 3 Zrotation Xrotation Yrotation
											End Site
											{
												OFFSET	-0.004284	-0.000551	 0.038166
											}
										}
									}
								}
							}
						}
					}
				}
				JOINT Neck
				{
					OFFSET	 0.000000	 0.000000	 0.176489
					CHANNELS 3 Zrotation Xrotation Yrotation
					JOINT Head
					{
						OFFSET	 0.000000	-0.001747	 0.077940
						CHANNELS 3 Zrotation Xrotation Yrotation
						End Site
						{
							OFFSET	 0.000000	-0.001747	 0.077940
						}
					}
				}
				JOINT RightShoulder
				{
					OFFSET	-0.080363	 0.000306	 0.159706
					CHANNELS 3 Zrotation Xrotation Yrotation
					JOINT RightArm
					{
						OFFSET	 0.000000	 0.000000	 0.164196
						CHANNELS 3 Zrotation Xrotation Yrotation
						JOINT RightForeArm
						{
							OFFSET	 0.000000	 0.000000	 0.365611
							CHANNELS 3 Zrotation Xrotation Yrotation
							JOINT RightHand
							{
								OFFSET	 0.000000	 0.000000	 0.360648
								CHANNELS 3 Zrotation Xrotation Yrotation
								JOINT RightHandIndex1
								{
									OFFSET	 0.000000	 0.000000	 0.069977
									CHANNELS 3 Zrotation Xrotation Yrotation
									JOINT RightHandIndex2
									{
										OFFSET	 0.000000	 0.000000	 0.052305
										CHANNELS 3 Zrotation Xrotation Yrotation
										JOINT RightHandIndex3
										{
											OFFSET	 0.009002	-0.000782	 0.042196
											CHANNELS 3 Zrotation Xrotation Yrotation
											End Site
											{
												OFFSET	 0.009002	-0.000782	 0.042196
											}
										}
									}
								}
							}
						}
					}
				}
			}
		}
	}
}
MOTION
Frames:    10
Frame Time: 0.03333334
-1.664171	-10.559890	 0.526558	-26.602180	 1.643919	 0.481349	 2.260980	-34.002680	 172.407300	-5.646476	-67.406400	-6.035726	 176.845200	 87.141170	-179.583400	-2.334005	 36.423720	-0.183603	 0.004268	-35.518170	-177.530700	 1.622152	-71.668730	 4.333579	-177.589600	 85.666410	 179.306900	 2.405343	 21.055820	-0.152067	 3.779696	 13.957380	 0.623530	 6.703760	 6.875304	-2.195894	 8.278428	 4.123491	 0.250417	-132.053700	 89.494090	-136.352100	 48.442990	 61.198690	-76.899600	-20.749920	 1.262827	-25.271920	 0.830091	-5.081688	-5.376473	-3.812334	 37.924440	-2.927599	-2.450526	 36.184240	 0.754587	-1.378229	 35.397820	-2.634230	 1.657322	 2.408041	-3.117085	 2.773886	 7.596153	 2.709445	 94.073880	 85.975370	 171.296700	-54.082220	 70.627530	 73.289190	 1.066790	-8.478893	 27.819600	-27.003740	-6.035654	 9.577245	 6.437017	 35.671460	-0.771858	 2.830251	 35.756010	-7.813440	-2.350882	 35.473990	 5.254307
-1.660098	-10.558180	 0.541503	-27.668430	 3.619678	 0.185624	 2.625232	-34.974140	 172.785600	-4.652353	-65.286420	-4.667166	 175.450200	 88.028800	-177.809900	-2.348898	 34.617670	-0.139717	 0.676072	-36.463700	-177.473700	 1.102093	-68.912740	 4.209672	-176.489900	 86.382310	 178.386100	 2.406365	 20.171100	-0.169706	 3.143450	 14.044590	 0.645270	 5.812476	 6.789600	-2.079055	 7.402687	 4.021764	 0.230439	-123.833500	 89.395740	-144.603400	 46.138550	 61.062900	-75.424950	-20.896560	 1.110816	-24.347970	 1.176267	-5.101470	-5.372581	-3.812334	 37.924440	-2.927599	-2.450526	 36.184240	 0.754587	-1.378229	 35.397820	-2.634230	 1.866102	 2.171816	-3.011682	 2.690016	 7.419484	 3.492228	 94.308400	 86.033210	 170.923100	-54.023630	 71.135490	 72.869200	 1.193437	-8.263623	 27.146790	-27.170590	-6.039923	 9.570181	 6.437017	 35.671460	-0.771858	 2.830251	 35.756010	-7.813440	-2.350882	 35.473990	 5.254307
-1.655487	-10.557240	 0.556579	-29.017140	 5.446501	-0.291739	 3.301340	-35.553640	 173.402900	-4.243420	-63.054870	-3.654152	 170.807500	 88.991670	-172.857500	-2.361155	 32.913070	-0.099645	 1.522741	-37.650620	-177.092100	-0.357926	-66.943150	 3.353282	-173.615200	 87.645480	 175.284500	 2.406933	 19.510710	-0.182798	 2.514796	 14.388120	 0.879244	 4.830462	 6.816310	-1.910532	 6.298338	 3.893927	 0.203029	-119.607900	 89.322180	-148.843700	 43.826260	 60.836470	-74.431280	-21.338860	 1.021224	-23.393320	 1.341287	-5.122523	-5.369293	-3.812334	 37.924440	-2.927599	-2.450526	 36.184240	 0.754587	-1.378229	 35.397820	-2.634230	 2.120353	 1.951684	-2.883711	 2.535713	 7.223118	 4.278164	 94.459630	 86.075590	 170.695800	-53.867130	 71.811010	 72.170490	 1.205413	-8.018647	 26.209050	-27.519970	-6.047066	 9.556703	 6.437017	 35.671460	-0.771858	 2.830251	 35.756010	-7.813440	-2.350882	 35.473990	 5.254307
-1.652492	-10.557510	 0.568039	-30.017040	 6.732005	-0.635989	 4.060538	-35.681190	 173.924300	-4.071468	-61.133290	-2.854686	 144.937800	 89.716070	-146.689600	-2.367503	 31.926450	-0.076997	 1.891740	-38.275140	-176.677500	-1.830919	-65.194910	 2.164716	-169.862900	 88.505900	 171.080900	 2.407115	 19.246940	-0.188009	 1.786981	 14.879530	 1.135466	 3.706490	 6.989629	-1.757747	 5.030615	 3.821587	 0.165285	-118.202700	 89.301700	-150.301600	 42.035860	 60.886490	-74.424360	-21.477000	 0.721874	-22.389900	 2.224352	-5.152384	-5.358831	-3.812334	 37.924440	-2.927599	-2.450526	 36.184240	 0.754587	-1.378229	 35.397820	-2.634230	 2.264377	 1.866662	-2.783889	 2.310846	 7.113856	 4.558589	 94.583360	 86.121170	 170.532500	-53.307950	 72.578870	 71.073610	 1.004281	-7.774879	 24.987630	-28.175950	-6.058533	 9.530918	 6.437017	 35.671460	-0.771858	 2.830251	 35.756010	-7.813440	-2.350882	 35.473990	 5.254307
-1.651408	-10.557600	 0.576543	-30.153180	 7.726978	-0.674120	 4.413415	-36.028220	 174.068100	-3.627767	-59.693680	-2.138504	 38.902260	 89.744350	-40.324680	-2.369243	 31.640860	-0.070505	 1.582628	-38.431750	-176.586600	-2.340453	-63.626370	 1.409702	-164.927000	 88.994970	 165.833200	 2.406987	 19.446490	-0.184067	 0.846014	 15.039500	 1.131031	 2.380959	 7.169437	-1.768336	 3.661426	 3.844582	 0.119527	-118.867700	 89.346580	-149.789600	 40.988800	 61.121400	-75.044330	-21.850330	 0.510690	-21.486980	 2.886998	-5.178326	-5.348895	-3.812334	 37.924440	-2.927599	-2.450526	 36.184240	 0.754587	-1.378229	 35.397820	-2.634230	 2.190552	 1.987400	-2.695580	 2.060707	 7.042483	 4.421828	 94.671590	 86.133040	 170.380500	-52.075420	 73.512310	 69.166580	 0.822411	-7.497429	 23.651500	-28.932640	-6.070866	 9.501285	 6.437017	 35.671460	-0.771858	 2.830251	 35.756010	-7.813440	-2.350882	 35.473990	 5.254307
-1.651664	-10.557920	 0.582901	-29.868240	 8.423340	-0.694128	 4.463507	-36.303380	 174.154100	-3.172766	-58.677520	-1.663294	 17.953270	 89.485280	-19.134300	-2.368714	 31.728650	-0.072504	 1.109387	-38.543510	-176.578500	-2.018362	-62.524540	 1.310718	-158.880100	 89.281810	 159.762700	 2.406480	 20.050230	-0.172110	-0.146020	 15.116270	 1.242030	 1.001595	 7.261145	-1.903559	 2.235366	 3.858657	 0.072685	-126.612400	 89.494870	-142.180300	 40.849880	 61.203880	-76.235160	-22.287910	 0.467326	-21.367110	 3.063570	-5.186990	-5.346014	-3.812334	 37.924440	-2.927599	-2.450526	 36.184240	 0.754587	-1.378229	 35.397820	-2.634230	 2.029622	 2.032393	-2.855158	 1.761543	 7.047915	 4.299813	 94.470180	 85.979130	 170.502600	-50.159450	 74.649360	 66.494190	 0.878991	-7.297422	 22.582820	-29.678970	-6.081458	 9.471951	 6.437017	 35.671460	-0.771858	 2.830251	 35.756010	-7.813440	-2.350882	 35.473990	 5.254307
-1.653582	-10.560080	 0.587962	-29.417170	 8.917329	-0.663474	 4.361679	-36.276440	 174.101000	-2.647143	-57.952950	-1.259743	 12.671530	 89.271000	-13.626190	-2.372347	 31.111760	-0.058575	 0.807729	-38.363640	-176.762100	-1.115492	-61.730780	 1.878321	-154.946600	 89.391230	 156.158400	 2.404566	 21.597760	-0.141204	-1.150130	 15.076860	 1.369848	-0.432946	 7.284337	-2.032317	 0.715612	 3.825337	 0.023473	-148.351100	 89.659650	-120.547900	 41.669450	 61.030180	-77.710240	-22.312160	 0.504165	-21.993080	 3.030023	-5.168176	-5.349538	-3.812334	 37.924440	-2.927599	-2.450526	 36.184240	 0.754587	-1.378229	 35.397820	-2.634230	 1.851228	 1.983349	-3.008697	 1.422162	 7.036789	 3.987618	 94.210600	 85.781010	 170.679600	-48.019420	 75.721560	 63.492860	 0.974364	-7.153191	 21.780860	-30.315560	-6.088073	 9.448055	 6.437017	 35.671460	-0.771858	 2.830251	 35.756010	-7.813440	-2.350882	 35.473990	 5.254307
-1.656459	-10.563320	 0.591530	-28.896180	 9.269937	-0.704698	 4.186225	-36.253990	 174.142100	-2.291386	-57.328790	-1.062820	 10.263270	 89.086570	-11.109450	-2.374886	 30.660900	-0.048476	 0.798631	-38.189580	-176.848000	-0.211290	-61.191140	 2.653911	-152.843700	 89.439420	 154.505400	 2.400677	 23.609830	-0.100405	-2.132216	 14.850130	 1.628568	-1.863567	 7.238331	-2.065286	-0.820615	 3.735416	-0.027564	 177.836600	 89.722340	-86.838010	 43.544270	 60.650850	-79.660750	-22.158290	 0.672166	-23.285610	 2.631999	-5.132373	-5.358644	-3.812334	 37.924440	-2.927599	-2.450526	 36.184240	 0.754587	-1.378229	 35.397820	-2.634230	 1.689444	 1.927338	-3.139893	 1.082734	 6.896400	 3.675225	 94.016760	 85.625920	 170.813800	-46.574180	 76.465580	 61.104000	 1.135787	-7.014862	 21.344960	-30.506980	-6.090761	 9.440372	 6.437017	 35.671460	-0.771858	 2.830251	 35.756010	-7.813440	-2.350882	 35.473990	 5.254307
-1.659761	-10.567410	 0.593773	-28.495360	 9.419249	-0.792983	 4.075412	-35.954870	 174.249500	-2.131804	-56.862100	-1.004116	 9.091973	 88.985860	-9.911914	-2.374932	 30.653500	-0.048308	 0.900455	-37.749100	-176.911900	 0.323215	-60.853280	 3.196589	-161.438100	 89.213660	 163.435700	 2.398620	 24.432740	-0.083499	-2.906281	 14.615620	 1.955855	-3.055547	 7.160278	-2.044734	-2.169405	 3.624646	-0.074973	 152.556000	 89.694180	-61.615770	 45.409600	 60.125190	-81.492120	-21.843580	 0.847715	-24.394670	 2.226931	-5.102353	-5.365820	-3.812334	 37.924440	-2.927599	-2.450526	 36.184240	 0.754587	-1.378229	 35.397820	-2.634230	 1.593971	 1.858485	-3.335903	 0.753251	 6.719718	 3.609673	 93.838950	 85.505820	 170.988600	-46.136750	 76.858210	 59.831750	 1.180596	-6.967720	 21.262110	-30.484440	-6.091402	 9.438915	 6.437017	 35.671460	-0.771858	 2.830251	 35.756010	-7.813440	-2.350882	 35.473990	 5.254307
-1.664011	-10.573010	 0.595271	-27.721930	 9.500010	-0.719438	 3.845570	-35.664540	 174.226300	-1.775684	-56.414890	-0.861022	 9.464730	 89.073170	-10.209210	-2.374140	 30.795710	-0.051490	 0.690757	-37.284070	-177.037400	 0.765524	-60.498150	 3.434131	-167.624500	 88.900690	 169.796400	 2.399226	 24.203020	-0.088238	-3.878675	 14.298300	 2.040167	-4.548609	 7.149509	-2.007703	-3.834113	 3.578145	-0.134096	 141.236400	 89.667210	-50.410030	 47.664390	 59.506210	-83.512860	-20.987540	 0.889240	-25.215520	 2.211889	-5.084427	-5.368312	-3.812334	 37.924440	-2.927599	-2.450526	 36.184240	 0.754587	-1.378229	 35.397820	-2.634230	 1.473462	 1.799772	-3.484611	 0.318235	 6.663703	 3.683614	 93.838060	 85.514800	 171.006500	-46.802480	 76.910880	 59.736400	 0.670803	-7.035742	 21.277110	-30.664250	-6.091793	 9.434498	 6.437017	 35.671460	-0.771858	 2.830251	 35.756010	-7.813440	-2.350882	 35.473990	 5.254307
